<?xml version="1.0" standalone="no"?>
<!DOCTYPE svg PUBLIC "-//W3C//DTD SVG 20010904//EN"
 "http://www.w3.org/TR/2001/REC-SVG-20010904/DTD/svg10.dtd">
<svg version="1.0" xmlns="http://www.w3.org/2000/svg"
 width="3264.000000pt" height="1312.000000pt" viewBox="0 0 3264.000000 1312.000000"
 preserveAspectRatio="xMidYMid meet">

<g transform="translate(0.000000,1312.000000) scale(0.100000,-0.100000)"
fill="#000000" stroke="none">
<path d="M15665 11149 c-141 -10 -337 -35 -415 -54 -302 -74 -460 -129 -669
-232 -164 -80 -302 -172 -446 -295 -130 -112 -213 -203 -322 -353 -94 -131
-134 -196 -202 -333 -61 -122 -73 -154 -145 -382 -79 -254 -119 -512 -137
-890 -10 -224 -7 -4052 4 -4080 3 -8 11 -80 17 -160 31 -417 125 -785 275
-1078 98 -192 286 -428 460 -578 337 -290 807 -484 1330 -548 334 -41 842 -46
1130 -12 195 24 540 97 593 126 9 5 42 17 72 26 51 16 249 101 295 126 259
145 358 218 515 377 175 176 251 284 373 527 103 205 126 265 176 464 48 190
80 375 93 540 18 218 24 1025 22 2735 -2 1447 -4 1680 -18 1815 -29 279 -47
368 -133 634 -160 502 -405 860 -786 1149 -351 265 -848 438 -1376 477 -155
11 -530 11 -706 -1z m485 -1479 c129 -14 219 -56 304 -143 133 -136 189 -313
221 -702 14 -167 15 -452 12 -2375 -4 -2426 1 -2263 -70 -2471 -43 -125 -87
-196 -163 -268 -114 -108 -263 -158 -434 -147 -382 24 -562 247 -610 756 -9
95 -10 644 -6 2255 4 1172 9 2166 12 2210 18 266 63 486 128 612 52 104 177
212 287 248 102 34 175 40 319 25z"/>
<path d="M7217 11043 c-4 -3 -7 -384 -7 -845 l0 -838 920 0 920 0 1 -452 c1
-249 3 -1840 4 -3535 2 -1694 5 -3086 9 -3091 8 -14 1974 -14 1982 0 3 5 7
1600 8 3544 l1 3534 928 0 927 0 0 839 c0 756 -2 839 -16 845 -22 8 -5669 8
-5677 -1z"/>
<path d="M19156 10928 c-3 -68 -6 -2043 -6 -4389 l1 -4267 1005 3 c553 2 1007
5 1009 7 2 2 6 529 9 1171 l4 1167 100 167 c55 93 124 211 154 263 131 224
191 320 198 313 4 -4 17 -33 28 -63 42 -115 562 -1407 712 -1770 40 -96 85
-211 102 -255 16 -44 40 -102 52 -130 13 -27 76 -180 139 -340 153 -384 204
-506 217 -519 8 -8 334 -12 1061 -13 910 -2 1051 -1 1055 12 3 8 -20 70 -51
137 -103 221 -115 248 -115 252 0 2 -20 47 -45 99 -25 53 -45 99 -45 102 0 5
-25 62 -220 495 -48 107 -111 249 -140 315 -46 104 -167 373 -232 515 -52 114
-122 270 -143 320 -12 30 -46 106 -74 167 -28 62 -51 115 -51 118 0 3 -52 120
-115 260 -63 140 -139 312 -169 382 -30 71 -100 229 -156 353 -56 124 -136
304 -177 400 -41 96 -97 225 -125 285 -27 61 -65 144 -83 185 -18 41 -70 155
-114 253 -45 98 -81 185 -81 194 0 9 26 62 59 117 110 190 451 798 589 1051
33 61 85 153 115 205 79 138 304 538 372 660 116 210 249 447 298 530 27 47
104 184 170 305 66 121 143 258 170 305 27 47 92 162 144 255 53 94 136 241
185 328 49 88 87 162 83 165 -4 4 -482 7 -1063 7 l-1057 0 -29 -55 c-15 -30
-64 -122 -109 -205 -44 -82 -107 -202 -140 -265 -33 -63 -96 -182 -140 -265
-44 -82 -168 -321 -277 -530 -228 -439 -281 -539 -326 -615 -18 -30 -40 -75
-50 -100 -10 -25 -37 -80 -61 -122 -23 -42 -84 -157 -134 -255 -51 -98 -95
-182 -99 -188 -4 -5 -49 -91 -100 -190 -51 -99 -130 -247 -175 -330 -45 -82
-84 -159 -88 -169 -4 -10 -10 -16 -13 -13 -3 3 -6 745 -5 1648 0 1284 -2 1645
-12 1651 -7 4 -460 8 -1008 8 l-996 0 -7 -122z"/>
</g>
</svg>
